<svg width="32" height="32" viewBox="0 0 32 32" fill="none" xmlns="http://www.w3.org/2000/svg">
<g id="warning">
<path id="Vector" d="M5.96 27.3383H26.04C28.0933 27.3383 29.3733 25.1116 28.3467 23.3383L18.3067 5.99162C17.28 4.21829 14.72 4.21829 13.6933 5.99162L3.65333 23.3383C2.62667 25.1116 3.90667 27.3383 5.96 27.3383ZM16 18.005C15.2667 18.005 14.6667 17.405 14.6667 16.6716V14.005C14.6667 13.2716 15.2667 12.6716 16 12.6716C16.7333 12.6716 17.3333 13.2716 17.3333 14.005V16.6716C17.3333 17.405 16.7333 18.005 16 18.005ZM17.3333 23.3383H14.6667V20.6716H17.3333V23.3383Z" fill="#FF9500" style="fill:#FF9500;fill:color(display-p3 1.0000 0.5843 0.0000);fill-opacity:1;"/>
</g>
</svg>
