<?xml version="1.0" encoding="UTF-8"?>
<svg version="1.1" viewBox="0 0 2000 2000" width="1280" height="1280" xmlns="http://www.w3.org/2000/svg">
<path transform="translate(998,138)" d="m0 0h20l41 2 25 3 28 6 24 9 15 9 10 8v2h2l9 12 6 12 3 7 6 2 28 4 26 5 11 2 24 5 18 5 27 8 28 10 31 14 21 12 17 13 7 6 7 8 8 9 9 13 9 16 7 16 6 19 3 15 1 16 2 5 18 4 14 5 13 7 10 8 11 11 7 10 8 16 4 14 1 6v105l-3 14-5 13-9 16-12 13-12 10-19 9-9 3-16 3-2 1-1 3-2 15-3 14-8 24-11 21-10 14-9 11-13 13-14 11-14 9-16 8-20 9-10 4-28 10-30 9-22 5-25 5-19 4-26 4-3 2v2l10 2 11 4 13 4 29 12 17 8 20 11 14 9 17 12 11 9 26 2 21 5 19 7 23 12 17 12 11 9 12 11 15 15 9 11 10 12 9 13 14 21 14 24 14 27 12 25 12 29 14 38 8 24 6 19 7 25 9 36 4 15 4 20 4 19 2 22v22l-2 18-5 21-4 11-8 16-9 13-11 12-9 7-10 6-14 6-13 3-8 1h-14l-17-3-13-4-16-8-10-7-10-9-9-9v-2h-2l-9-13-9-16-6-13-6-16-4-13-6-24-3-14-2-12-4-20-5-26-2-6-3 3-7 28-15 45-11 28-5 10-7 16-10 19-10 18-13 20-8 12-14 18-8 10-12 14-26 26-22 18-18 13-17 11-22 12-24 11-25 9-13 4-26 6-19 3-16 2-17 1h-28l-18-1-36-5-19-4-29-9-21-8-14-7-17-8-18-11-15-10-11-8-13-11-11-9-29-29-9-11-13-16-12-17-11-17-8-13-12-22-8-16-10-22-11-27-8-24-7-22-8-30-3-12-2-12-3-11-3 5-10 52-4 20-2 11-5 26-5 21-5 16-7 19-8 16-10 16-14 17-10 9-8 6-11 6-14 6-17 4-6 1h-17l-17-3-13-5-16-9-12-11-7-8-7-10-8-16-5-13-5-21-2-19v-21l2-22 6-29 4-16 2-10 8-31 7-24 5-17 12-36 10-28 14-34 7-15 15-30 9-16 14-23 12-17 10-14 13-15 11-12 12-12 8-7 13-10 12-8 10-6 19-9 18-6 13-3 16-2h25l13-10 11-8 13-9 17-10 17-9 27-12 20-7 8-3 15-5-3-3-32-4-36-7-14-3-33-8-25-8-27-10-25-11-22-12-18-13-13-12-10-11-9-13-7-11-10-21-5-15-3-12-3-21-3-3-18-4-15-6-10-6-11-9-9-9-9-14-6-13-4-14-1-7v-104l4-16 4-11 7-12 8-11h2l2-4 15-12 19-9 11-3 11-2 2-1 4-31 7-23 5-12 8-16 11-16 12-14 11-11 17-13 22-12 12-6 17-7 9-4 33-11 26-7 19-5 11-2 20-4 37-6 25-3 6-1 2-5 8-16 10-12 13-10 16-8 13-5 18-5 16-3 25-3z" fill="#1C2039"/>
<path transform="translate(837,888)" d="m0 0h1l1 28 3 13 8 16 7 9 12 12 14 10 23 12 25 9 26 6 22 3 13 1h29l23-2 28-5 20-6 18-7 21-11 14-10 8-7 9-11 6-10 5-12 2-10 1-27 8 1 29 9 27 10 33 16 17 10 12 8 12 9 13 11 15 14 9 11 13 17 12 21 10 25 5 20 3 21v60l-2 34-5 49-6 39-5 25-9 37-9 31-11 31-10 24-13 28-14 26-14 22-11 16-10 13-9 11-9 10-7 8-19 19-11 9-12 10-18 13-20 12-23 12-23 10-24 8-25 6-23 4-19 2-28 1-24-1-26-3-25-5-22-6-23-8-20-9-25-13-17-11-14-10-16-13-8-7-10-9-17-17-9-11-7-8-10-13-13-18-11-18-10-17-15-29-12-28-13-35-10-33-7-28-7-33-6-37-5-44-2-27-1-21v-58l3-21 6-23 10-24 11-19 9-12 9-11 12-13 11-10 14-11 13-9 18-11 23-12 20-9 28-10z" fill="#DBE0EA"/>
<path transform="translate(949,312)" d="m0 0h117l42 2 48 4 48 6 35 6 36 8 29 8 27 9 24 10 20 10 13 9 11 9 7 8 9 12 6 10 8 20 4 20v223l-4 20-6 15-8 15-10 13-14 14-10 7-14 8-21 10-27 10-25 8-40 10-38 7-42 6-40 4-44 3-26 1h-114l-57-3-45-4-44-6-39-7-34-8-27-8-31-11-24-11-16-9-13-10-13-13-9-13-9-17-6-19-2-13v-222l3-16 6-17 9-17 10-13 14-14 15-10 21-11 27-11 27-9 34-9 33-7 44-7 44-5 39-3z" fill="#1E465F"/>
<path transform="translate(641,1300)" d="m0 0 10 3 37 12 22 6 24 7 18 5 36 8 20 4 23 4 1 1v45l9 1 37 6 22 3 40 4 32 2h68l34-2 40-4 43-6 24-5 1-44 6-2 20-3 32-7 15-4 15-3 17-5 19-6 13-4 13-3 36-12 6-1 1 2-7 31-12 40-9 25-10 24-13 28-14 26-14 22-11 16-10 13-9 11-9 10-7 8-19 19-11 9-12 10-18 13-20 12-23 12-23 10-24 8-25 6-23 4-19 2-28 1-24-1-26-3-25-5-22-6-23-8-20-9-25-13-17-11-14-10-16-13-8-7-10-9-17-17-9-11-7-8-10-13-13-18-11-18-10-17-15-29-12-28-13-35-10-33-7-28-2-11z" fill="#DBE0EA"/>
<path transform="translate(949,312)" d="m0 0h117l42 2 48 4 48 6 35 6 36 8 29 8 27 9 24 10 20 10 13 9 11 9 7 8 9 12 6 10 8 20 4 20v223l-4 20-6 15-8 15-10 13-14 14-10 7-14 8-21 10-27 10-25 8-40 10-38 7-42 6-40 4-44 3-26 1h-114l-57-3-45-4-44-6-39-7-34-8-27-8-31-11-24-11-16-9-13-10-13-13-9-13-9-17-6-19-2-13v-222l3-16 6-17 9-17 10-13 14-14 15-10 21-11 27-11 27-9 34-9 33-7 44-7 44-5 39-3zm1 16-43 2-48 4-35 4-43 7-13 3-12 2-31 8-39 13-24 10-17 9-11 8-4 3v2l-4 2-2 4h-2l-9 12-5 8-7 17-3 11-1 7v208l1 11 5 2 18 10 19 10 9 4 13 6 11 4 7 3 13 5 23 8 19 6 21 6 40 10 27 5 17 3 27 4 29 3 53 3h22l45-2 27-3 25-4 15-3 5-2 16-4 11-4 6-2 17-7 9-5 10-5 14-10 8-6 10-9 3-3v-2l4-2 4-5 4-4 2-5h2l2-6h2l10-18 8-18 7-21 3-14v-4l20 2h17l8-3 5-6 3-8 1-6v-12l-3-17-6-15-7-11-9-10-10-9-14-8h-3v-6l-1-1-1-15-6-39-3-22-4-20-6-20-5-15-7-15-5-9-7-1v-2l-42-5-33-3-34-2-24-1z" fill="#153748"/>
<path transform="translate(940,216)" d="m0 0h119l57 3 44 4 45 6 29 5 33 7 31 8 36 12 22 9 25 12 14 9 14 11 14 14 10 13 11 19 8 20 5 20 2 17v272l-2 17-5 21-6 15-10 19-8 11-9 11-11 11-13 10-13 8-16 8-17 8-24 9-25 8-25 7-37 8-41 7-39 5-46 4-35 2-26 1h-103l-47-2-50-4-43-5-43-7-37-8-30-8-36-12-26-11-20-10-14-9-11-9-11-10-9-11-8-11-10-18-7-18-5-21-1-8v-287l3-18 6-20 10-21 8-12 8-10 9-10 12-11 18-12 19-10 26-11 28-10 32-9 30-7 44-8 37-5 40-4 46-3zm9 96-57 3-43 4-39 5-40 7-39 9-31 9-27 10-24 11-16 9-12 9-14 14-10 14-9 19-5 16-2 12v222l3 17 6 17 9 17 10 13 13 13 14 10 23 12 25 10 36 12 40 10 38 7 42 6 40 4 46 3 24 1h114l43-2 49-4 48-6 40-7 39-9 31-9 32-12 29-14 13-9 10-9 9-9 10-14 10-21 5-19 1-7v-223l-4-20-6-15-6-12-10-14-12-12-8-7-14-9-29-14-33-12-32-9-30-7-38-7-46-6-43-4-32-2-24-1z" fill="#DBE0EA"/>
<path transform="translate(646,966)" d="m0 0h15l-6 7-11 14-12 18-10 19-8 21-5 18-4 25v68l3 46 2 19v14l-9 42-9 46-11 58-7 33-7 23-9 21-9 16-10 13-7 8-11 9-13 8-16 6-9 2-17 1-14-2-12-4-11-6-10-8-7-7-9-13-7-14-6-19-3-18-1-13v-11l2-23 5-25 8-35 12-45 11-36 13-37 12-30 11-25 14-29 13-23 13-21 12-17 13-17 10-11 7-8 12-12 11-9 13-10 15-9 16-8 21-7z" fill="#DBE0EA"/>
<path transform="translate(1353,965)" d="m0 0 17 3 16 5 18 8 15 9 16 12 14 12 15 15 7 8 9 11 12 16 15 23 14 24 15 29 13 29 12 30 14 39 11 36 12 44 11 48 4 24 1 25-2 21-5 21-6 15-8 14-8 10-11 10-14 8-13 4-5 1h-24l-16-4-12-5-11-7-12-11-7-7-10-14-8-14-8-19-6-18-7-30-11-56-11-58-1-11 6-44 3-32 2-33 1-52-2-24-5-25-8-24-9-19-9-15-10-14-11-13-3-3z" fill="#DBE0EA"/>
<path transform="translate(949,312)" d="m0 0h117l42 2 48 4 48 6 35 6 36 8 29 8 27 9 24 10 20 10 13 9 11 9 7 8 9 12 6 10 8 20 4 20v223l-4 20-6 15-8 15-10 13-14 14-10 7-14 8-21 10-27 10-25 8-40 10-38 7-42 6-40 4-44 3-26 1h-114l-57-3-45-4-44-6-39-7-34-8-27-8-31-11-24-11-16-9-13-10-13-13-9-13-9-17-6-19-2-13v-222l3-16 6-17 9-17 10-13 14-14 15-10 21-11 27-11 27-9 34-9 33-7 44-7 44-5 39-3zm1 16-43 2-48 4-35 4-43 7-13 3-12 2-31 8-39 13-24 10-17 9-11 8-4 3v2l-4 2-2 4h-2l-9 12-5 8-7 17-3 11-1 7v220l3 15 6 16 2 5h2l1 4 7 10 6 8h2v2l10 8 14 9 16 8 21 9 33 11 30 8 34 7 48 8 64 6 64 3h96l48-2 58-5 26-3 36-6 16-3 24-5 20-5 5-2 12-3 15-5 25-10 16-7 16-9 3-2v-2l5-2 11-11 8-10 6-10 7-17 3-13 1-6v-216l-3-16-4-13-8-15-10-13-12-12-14-9-17-9-19-8-10-4-13-4-27-8-38-9-45-8-42-5-33-3-34-2-24-1z" fill="#181A34"/>
<path transform="translate(1152,876)" d="m0 0h8v38l-4 14-6 10-9 10-7 7-13 9-19 10-22 8-21 5-17 3-26 2h-18l-26-2-22-4-22-6-20-8-17-9-13-10-12-12-8-13-3-9-1-6v-35l3-1 55 4 24 1 48 1h24l54-1 55-3z" fill="#DBE0EA"/>
<path transform="translate(795,497)" d="m0 0h17l15 3 13 5 15 9 8 7 9 11 8 14 5 15 2 13v12l-2 10-3 6-6 5-6 2h-20l-30-4h-32l-31 4h-21l-8-4-5-6-2-5-1-6v-16l3-15 5-13 7-12 10-12 10-8 14-8 10-4z" fill="#68F1F9"/>
<path transform="translate(1202,497)" d="m0 0h17l15 3 13 5 13 8 10 9 9 10 8 14 5 15 2 13v12l-3 12-4 6-6 4-4 1h-17l-33-4h-32l-31 4h-20l-8-3-6-7-3-14v-11l3-17 6-15 9-14 13-13 14-9 12-5 11-3z" fill="#68F1F9"/>
<path transform="translate(1475,429)" d="m0 0 13 1 12 4 12 6 10 8 9 9 7 11 5 11 3 11 1 8v95l-4 18-8 16-9 11-10 9-14 8-16 5-11 1z" fill="#B7C0CF"/>
<path transform="translate(517,429)" d="m0 0h6v232l-13-2-12-4-11-6-10-8-10-11-8-14-5-16-1-7v-96l3-15 5-12 6-10 9-10 9-8 12-7 15-5z" fill="#DBE0EA"/>
<path transform="translate(641,1300)" d="m0 0 10 3 37 12 22 6 24 7 18 5 36 8 20 4 23 4 1 1v45l9 1 37 6 22 3 40 4 32 2h68l34-2 40-4 43-6 24-5 1-44 6-2 20-3 32-7 15-4 15-3 17-5 19-6 13-4 13-3 36-12 6-1 1 2-4 17-10 3-26 8-18 6-12 3-17 5-9 2-24 6-31 7-22 4h-3l-1 45-22 5-45 7-35 4-40 3-20 1h-59l-36-2-44-4-40-6-29-5-11-3-1-1v-44l-8-1-31-6-38-9-32-9-28-8-36-12-4-15v-2z" fill="#4DD9DA"/>
<path transform="translate(976,155)" d="m0 0h61l36 3 23 4 21 6 16 7 11 7 11 11 7 12v2l-18-1-56-4-64-2h-48l-43 1-39 2-41 3 1-5 7-10 9-9 11-7 16-7 21-6 23-4z" fill="#DAE0EA"/>
<path transform="translate(1152,876)" d="m0 0h8v38h-1v-37l-1 1v23l-29 10-33 8-28 4-26 2h-73l-32-3-26-4-23-5-16-5-16-6v-23l3-1 23 1 30 2 24 1 48 1h24l54-1 55-3z" fill="#B7C0CF"/>
<path transform="translate(784,933)" d="m0 0h8l6 3 3 6v8l-1 3h-2l-1 3-8 4-19 7-15 8-16 10-9 7h-2v2l-7 6-5 5-2 3h-2l-2 4-10 15-8 16-4 13-2 9-1 9-1 38-4 8-6 2h-8l-4-2-4-7-1-17 1-24 3-21 5-16 9-19 9-14 8-11h2l2-4 9-9h2l2-4 5-2v-2h2v-2l16-11 16-9 10-5 14-6z" fill="#FDFDFD"/>
<path transform="translate(821,253)" d="m0 0h15l7 4 3 5v12l-6 7-5 2-43 5-37 6-19 4-16 3-35 10-15 5-5 3-4 1h-7l-6-2-5-6-1-4v-8l4-6 5-4 18-7 16-5 21-6 27-6 19-4 28-4 12-2z" fill="#FDFDFD"/>
<path transform="translate(961,676)" d="m0 0h92l5 4v12l-4 13-6 10-10 10-10 6-16 4h-9l-14-3-10-5-10-8-7-10-5-13-1-5v-11z" fill="#67F0F8"/>
<path transform="translate(1243,504)" d="m0 0 6 2 11 7 10 9 9 10 8 14 5 15 2 13v12l-3 12-4 6-6 4-4 1h-17l-24-3v-1h5l1-10 2-27v-32l-2-29z" fill="#4BD7D8"/>
<path transform="translate(607,319)" d="m0 0h10l5 3 4 4 1 3v9l-3 6h-2l-2 4-4 2v2h-2l-2 4-6 4h-10l-4-2v-2l-4-2-3-10 3-8 7-7 4-5 5-2v-2z" fill="#FDFDFD"/>
<path transform="translate(672,1148)" d="m0 0h7l6 4 3 5 1 7v12l-3 5-6 4-9-1-6-5-2-6-1-7v-8l4-7z" fill="#FDFDFD"/>
<path transform="translate(998,138)" d="m0 0h20l41 2 16 2v1h-18l-3-1-35-1h-64v-1z" fill="#678094"/>
<path transform="translate(1556,469)" d="m0 0 2 3 4 14 1 6v105l-3 14-5 13-4 8-1-3 4-10h2l1-8 2-5 2-11v-101l-5-20z" fill="#95A5B6"/>
<path transform="translate(960,1674)" d="m0 0h18l6 1h49l1-1h21v1l-16 2-17 1h-28l-18-1-16-2z" fill="#5D788D"/>
<path transform="translate(1486,1525)" d="m0 0 7 1 9 3 18 4h21l15-3 4-2h6l-3 2-13 4-13 2h-14l-17-3-13-4-7-3z" fill="#627C91"/>
<path transform="translate(374,1368)" d="m0 0h1v15l-2 8v39l2 11v10h-1l-3-17-1-12v-21l2-22z" fill="#607A8F"/>
<path transform="translate(397,1275)" d="m0 0h1v9l-1 3h-2v7l-3 10-1 5-5 19-3 3 1-7 8-31z" fill="#657F93"/>
<path transform="translate(1019,139)" d="m0 0h24l25 2 7 1v1h-18l-3-1-35-1z" fill="#607B90"/>
<path transform="translate(803,211)" d="m0 0h7l-2 2-22 3-7 2-12 1-1 1h-9l4-2 35-6z" fill="#698296"/>
<path transform="translate(504,1528)" d="m0 0h6l-3 2-12 4-16 3h-17v-1l15-1 1-1 16-3 8-2z" fill="#6E869A"/>
<path transform="translate(652,949)" d="m0 0h27l-2 3h-41v-1z" fill="#688195"/>
<path transform="translate(1272,226)" d="m0 0 6 1 27 7 10 3v1h-7l-5-2-17-4-5-2-7-2z" fill="#5E798E"/>
<path transform="translate(711,229)" d="m0 0 4 1-2 2-9 2-2 1h-7v2l-11 3-5 1-1-2 22-7z" fill="#667F94"/>
<path transform="translate(593,1396)" d="m0 0 1 4-5 21-3 11h-1v-9l2-4 4-20z" fill="#657F93"/>
<path transform="translate(426,1525)" d="m0 0 6 1 9 4 19 4v2l-10-1-14-4-10-5z" fill="#5E798E"/>
<path transform="translate(1486,1525)" d="m0 0 7 1 9 3 18 4 2 2-12-1-14-4-10-4z" fill="#5D788D"/>
<path transform="translate(652,1402)" d="m0 0h2l5 13 5 11 2 4v5l-3-4-11-27z" fill="#637D91"/>
<path transform="translate(529,711)" d="m0 0 3 2 4 14 2 3v5h2v5l-3-4-5-13-3-9z" fill="#657F93"/>
<path transform="translate(545,331)" d="m0 0 1 3-3 8-3 4-5 13-3 3 1-5 5-12z" fill="#627C91"/>
<path transform="translate(580,288)" d="m0 0h2l-1 3-8 7-6 6-1 3-5 5-4 2 6-8 9-10z" fill="#6C8498"/>
<path transform="translate(1622,1353)" d="m0 0h1l5 25v6h-2l-1-3-1-12-2-7z" fill="#688195"/>
<path transform="translate(783,868)" d="m0 0h15l14 2 1 2-16-1-14-2z" fill="#6B8397"/>
<path transform="translate(374,1368)" d="m0 0h1v15l-3 14h-1v-9z" fill="#6F879B"/>
<path transform="translate(1034,1674)" d="m0 0h21v1l-16 2h-12v-1z" fill="#71889C"/>
<path transform="translate(1385,1325)" d="m0 0 1 4-6 23h-1v-9l2-4 2-10z" fill="#647E92"/>
<path transform="translate(442,1150)" d="m0 0h1v5h-2l-1 7-6 13h-2l3-9z" fill="#647E92"/>
<path transform="translate(1237,862)" d="m0 0h10v1l-26 5-4-1 3-2 11-1z" fill="#647E92"/>
<path transform="translate(1198,212)" d="m0 0 10 1 18 3v1h-10l-3-1-15-2z" fill="#6B8397"/>
<path transform="translate(960,1674)" d="m0 0h18l9 2v1h-11l-16-2z" fill="#71899C"/>
<path transform="translate(1347,249)" d="m0 0 9 3 15 7-4 1-8-4-11-4z" fill="#607B8F"/>
<path transform="translate(1048,140)" d="m0 0h11l16 2v1h-18l-9-2z" fill="#738A9D"/>
<path transform="translate(371,1425)" d="m0 0h1l3 16v10h-1l-3-17z" fill="#6E869A"/>
<path transform="translate(1366,1386)" d="m0 0h2l-1 5-7 18-1-4 4-12h2z" fill="#5C778C"/>
<path transform="translate(605,1328)" d="m0 0h2l-1 10-3 17h-1v-13l2-5z" fill="#637D92"/>
<path transform="translate(1556,469)" d="m0 0 2 3 4 14v8l-2-3-4-17z" fill="#607A8F"/>
<path transform="translate(1460,346)" d="m0 0 2 2 6 17v2l-3-1-2-7-4-11z" fill="#58758A"/>
<path transform="translate(419,1207)" d="m0 0h1v7l-4 9-1 5-3 1 3-11z" fill="#698296"/>
<path transform="translate(860,169)" d="m0 0 2 1-14 14-2 3-2-1 10-12z" fill="#4B6076"/>
<path transform="translate(701,1500)" d="m0 0h2l1 4h2l1 4h2v3h2l1 6-4-4-7-11z" fill="#547187"/>
<path transform="translate(629,1329)" d="m0 0 3 2 1 8 2 4v8h-1l-5-18z" fill="#647E93"/>
<path transform="translate(1389,1312)" d="m0 0 2 2 2 9-1 4-2-6-4 3 2-9z" fill="#C8CFDB"/>
<path transform="translate(619,819)" d="m0 0 7 1v2l6 1 6 3v2l-9-3-10-5z" fill="#688196"/>
<path transform="translate(1272,226)" d="m0 0 6 1 16 4v1h-8l-5-2-7-2z" fill="#6B8397"/>
<path transform="translate(828,208)" d="m0 0 4 1-6 2-11 1-3-2z" fill="#647E92"/>
<path transform="translate(617,1277)" d="m0 0 2 4 1 7-2-2-4 5 1-8z" fill="#C8CFDC"/>
<path transform="translate(442,472)" d="m0 0h1v7l-3 12-2 1 1-9z" fill="#667F94"/>
<path transform="translate(678,1461)" d="m0 0 3 1 3 5v4h2l1 6-4-5z" fill="#5C788D"/>
<path transform="translate(1414,1427)" d="m0 0 3 3 3 9v6l-2-3-4-11z" fill="#6B8397"/>
<path transform="translate(1470,705)" d="m0 0 1 3-5 16h-1l1-9 3-9z" fill="#5C788D"/>
<path transform="translate(1228,217)" d="m0 0 9 1 12 2v1h-13l-8-3z" fill="#637D92"/>
<path transform="translate(426,1525)" d="m0 0 6 1 9 4 1 2-6-1-10-5z" fill="#567388"/>
<path transform="translate(1378,263)" d="m0 0 5 2 11 6-4 1v-2l-6-2-6-3z" fill="#557287"/>
<path transform="translate(638,254)" d="m0 0h2l-1 3-9 4-3-1 4-3z" fill="#657F93"/>
<path transform="translate(652,1402)" d="m0 0h2l4 9v6l-2-3-4-10z" fill="#5C788D"/>
<path transform="translate(1190,871)" d="m0 0h5l-3 3v2l-9-2 2-2z" fill="#C8CFDC"/>
<path transform="translate(687,236)" d="m0 0h5v2l-8 2-5 1-1-2z" fill="#5C788D"/>
<path transform="translate(1486,1525)" d="m0 0 7 1 8 3v2l-5-1-10-4z" fill="#657E93"/>
<path transform="translate(1612,1481)" d="m0 0h2l-2 5-5 8-1-3z" fill="#5F7A8E"/>
<path transform="translate(588,1417)" d="m0 0 1 4-3 11h-1v-9z" fill="#768CA0"/>
</svg>