<svg width="40" height="32" viewBox="0 0 40 32" fill="none" xmlns="http://www.w3.org/2000/svg">
<path d="M13.888 11.8818H11.373V27.8743H13.888V11.8818Z" fill="#FEC93E"/>
<path d="M14.319 14.4936H10.9419C10.693 14.4936 10.4912 14.2918 10.4912 14.0429V12.5121H14.7698V14.0429C14.7698 14.2919 14.568 14.4936 14.319 14.4936Z" fill="#F7A738"/>
<path d="M14.7698 27.281H10.4912V25.7502C10.4912 25.5013 10.693 25.2994 10.9419 25.2994H14.319C14.568 25.2994 14.7698 25.5013 14.7698 25.7502V27.281Z" fill="#F7A738"/>
<path d="M20.6268 11.8818H18.1118V27.8743H20.6268V11.8818Z" fill="#FEC93E"/>
<path d="M21.5087 27.281H17.23V25.7502C17.23 25.5013 17.4319 25.2994 17.6808 25.2994H21.0579C21.3068 25.2994 21.5087 25.5013 21.5087 25.7502V27.281Z" fill="#F7A738"/>
<path d="M27.3655 11.8818H24.8505V27.8743H27.3655V11.8818Z" fill="#FEC93E"/>
<path d="M27.7967 14.4936H24.4196C24.1707 14.4936 23.9689 14.2918 23.9689 14.0429V12.5121H28.2475V14.0429C28.2475 14.2919 28.0457 14.4936 27.7967 14.4936Z" fill="#F7A738"/>
<path d="M20.8279 14.4936H17.4507C17.2018 14.4936 17 14.2918 17 14.0429V12.5121H21.2786V14.0429C21.2786 14.2919 21.0768 14.4936 20.8279 14.4936Z" fill="#F7A738"/>
<path d="M28.2475 27.281H23.9689V25.7502C23.9689 25.5013 24.1707 25.2994 24.4196 25.2994H27.7967C28.0457 25.2994 28.2475 25.5013 28.2475 25.7502V27.281Z" fill="#F7A738"/>
<path d="M7.14933 11.8818H4.63434V27.8743H7.14933V11.8818Z" fill="#FEC93E"/>
<path d="M7.58028 14.4936H4.2031C3.95416 14.4936 3.75235 14.2918 3.75235 14.0429V12.5121H8.03097V14.0429C8.03097 14.2919 7.82922 14.4936 7.58028 14.4936Z" fill="#F7A738"/>
<path d="M8.03097 27.281H3.75235V25.7502C3.75235 25.5013 3.95416 25.2994 4.2031 25.2994H7.58022C7.82915 25.2994 8.03097 25.5013 8.03097 25.7502V27.281Z" fill="#F7A738"/>
<path d="M30.0688 12.5121H1.9311C1.68773 12.5121 1.49048 12.3148 1.49048 12.0715V10.1892C1.49048 9.94578 1.68779 9.74854 1.9311 9.74854H30.0687C30.3121 9.74854 30.5094 9.94585 30.5094 10.1892V12.0715C30.5094 12.3148 30.3122 12.5121 30.0688 12.5121Z" fill="#FEC93E"/>
<path d="M30.0687 9.74854H27.0271V12.5122H30.0687C30.3121 12.5122 30.5093 12.3148 30.5093 12.0715V10.1892C30.5093 9.94585 30.3121 9.74854 30.0687 9.74854Z" fill="#EFB635"/>
<path d="M30.7838 29.198H1.21619V27.9549C1.21619 27.5827 1.51787 27.281 1.89006 27.281H30.1099C30.4821 27.281 30.7838 27.5827 30.7838 27.9549V29.198H30.7838Z" fill="#FEC93E"/>
<path d="M30.1098 27.281H27.3013V29.198H30.7836V27.9549C30.7836 27.5827 30.4819 27.281 30.1098 27.281Z" fill="#EFB635"/>
<path d="M31.7684 31.115H0.2315C0.103625 31.115 0 31.0113 0 30.8835V29.8719C0 29.4997 0.301687 29.198 0.673874 29.198H31.3261C31.6983 29.198 32 29.4997 32 29.8719V30.8835C31.9999 31.0114 31.8963 31.115 31.7684 31.115Z" fill="#F7A738"/>
<path d="M31.3259 29.198H28.5336V31.115H31.7683C31.8961 31.115 31.9997 31.0113 31.9997 30.8834V29.8718C31.9998 29.4997 31.6981 29.198 31.3259 29.198Z" fill="#E8932E"/>
<path d="M16.0168 0.93991L0.179922 9.24739C0.0921093 9.29346 0.0371094 9.38439 0.0371094 9.48352V10.3342C0.0371094 10.4815 0.156484 10.6008 0.303734 10.6008H31.6962C31.8434 10.6008 31.9628 10.4815 31.9628 10.3342V9.48121C31.9628 9.38327 31.9091 9.29321 31.823 9.24664L16.4678 0.942722C16.3273 0.866785 16.1583 0.865722 16.0168 0.93991Z" fill="#F7A738"/>
<path d="M31.823 9.24655L16.4677 0.942632C16.3273 0.866695 16.1582 0.86557 16.0168 0.939757L13.2709 2.38013L28.4721 10.6007H31.6961C31.8434 10.6007 31.9628 10.4814 31.9628 10.3341V9.48105C31.9628 9.38318 31.9091 9.29312 31.823 9.24655Z" fill="#E8932E"/>
<path d="M30.9979 14C26.0341 14 22 18.0383 22 23.0021C22 27.9659 26.0341 32 30.9979 32C35.9617 32 39.9999 27.9659 39.9999 23.0021C39.9999 18.0383 35.9617 14 30.9979 14Z" fill="#258E3F"/>
<path d="M30.9976 15.1254C35.3534 15.1254 38.8744 18.6463 38.8744 23.0022C38.8744 27.358 35.3534 30.8747 30.9976 30.8747C26.6418 30.8747 23.125 27.358 23.125 23.0022C23.125 18.6463 26.6418 15.1254 30.9976 15.1254Z" fill="#3DCC61"/>
<path d="M30.9955 16.2471C30.7142 16.2471 30.433 16.4343 30.433 16.8095V18.0026C29.1548 18.2658 28.1874 19.4025 28.1874 20.7557C28.1874 22.3024 29.451 23.5671 30.9977 23.5671C31.9363 23.5671 32.684 24.3181 32.684 25.2568C32.684 26.1954 31.9363 26.9432 30.9977 26.9432C30.059 26.9432 29.3124 26.1954 29.3124 25.2568C29.2954 24.5233 28.2037 24.5233 28.1874 25.2568C28.1874 26.6101 29.1548 27.7478 30.433 28.011V29.1931C30.433 29.9432 31.558 29.9432 31.558 29.1931V28.0121C32.8383 27.7506 33.809 26.6116 33.809 25.2568C33.809 23.7102 32.5443 22.4421 30.9977 22.4421C30.059 22.4421 29.3124 21.6944 29.3124 20.7557C29.3124 19.8171 30.059 19.0705 30.9977 19.0705C31.9363 19.0705 32.684 19.8171 32.684 20.7557C32.667 21.5226 33.826 21.5226 33.809 20.7557C33.809 19.4009 32.8383 18.263 31.558 18.0015V16.8095C31.558 16.4344 31.2768 16.2471 30.9955 16.2471Z" fill="#258E3F"/>
</svg>
